<svg width="30px" height="30px" viewBox="0 0 30 30" version="1.1" xmlns="http://www.w3.org/2000/svg" xmlns:xlink="http://www.w3.org/1999/xlink">
    <defs>
        <polygon id="path-1" points="0 0 30 0 30 30 0 30"></polygon>
    </defs>
    <g id="Page-1" stroke="none" stroke-width="1" fill="none" fill-rule="evenodd">
        <g id="web關於我們" transform="translate(-1315.000000, -39.000000)">
            <g id="Page-1" transform="translate(1315.000000, 39.000000)">
                <mask id="mask-2" fill="white">
                    <use xlink:href="#path-1"></use>
                </mask>
                <g id="Clip-2"></g>
                <path d="M18.8775286,14.998088 L16.4193828,14.9999383 L16.4174707,23.9999013 L13.044382,23.9999013 L13.044382,15 L10.7943404,15 L10.7943404,11.898736 L13.0443203,11.8968856 L13.0406196,10.0706426 C13.0406196,7.53941265 13.7268576,6.00003701 16.7062507,6.00003701 L19.1887597,6.00003701 L19.1887597,9.10315137 L17.6362433,9.10315137 C16.4756338,9.10315137 16.4193828,9.53625882 16.4193828,10.3443724 L16.4156204,11.8968856 L19.2055363,11.8968856 L18.8775286,14.998088 Z M14.9999692,0 C6.71626325,0 0,6.71624944 0,15 C0,23.2837506 6.71626325,30 14.9999692,30 C23.2837367,30 30,23.2837506 30,15 C30,6.71439909 23.2837367,0 14.9999692,0 Z" id="Fill-1" fill="#FFFFFF" mask="url(#mask-2)"></path>
            </g>
        </g>
    </g>
</svg>
