<svg width="157px" height="32px" viewBox="0 0 157 32" version="1.1" xmlns="http://www.w3.org/2000/svg" xmlns:xlink="http://www.w3.org/1999/xlink">
    <defs>
        <polygon id="path-1" points="0.109354601 0.123354839 14.9565693 0.123354839 14.9565693 31.999914 0.109354601 31.999914"></polygon>
        <polygon id="path-3" points="0.111347239 0.123354839 14.6924761 0.123354839 14.6924761 31.9999312 0.111347239 31.9999312"></polygon>
    </defs>
    <g id="Symbols" stroke="none" stroke-width="1" fill="none" fill-rule="evenodd">
        <g id="Logo-Only-Aphabet">
            <g id="Group">
                <polygon id="Fill-1" fill="#FEFEFE" points="0 1 0 5.42844918 5.07308313 5.42844918 5.07308313 32 9.92691687 32 9.92691687 5.42844918 15 5.42844918 15 1"></polygon>
                <g id="Group-20" transform="translate(17.000000, 0.000000)">
                    <path d="M4.95843926,4.93228387 L4.95843926,27.1922409 L7.71463558,27.1922409 C9.26940859,27.1922409 10.2033718,26.3908645 10.2033718,24.164628 L10.2033718,7.95972473 C10.2033718,5.73348817 9.26940859,4.93228387 7.71463558,4.93228387 L4.95843926,4.93228387 Z M0.0677153374,0.480498925 L7.80293006,0.480498925 C12.6934822,0.480498925 15.0927215,3.19550968 15.0927215,8.18217634 L15.0927215,23.9423484 C15.0927215,28.9284989 12.6934822,31.6438538 7.80293006,31.6438538 L0.0677153374,31.6438538 L0.0677153374,0.480498925 Z" id="Fill-2" fill="#FEFEFE"></path>
                    <g id="Group-6" transform="translate(17.693252, 0.000000)">
                        <mask id="mask-2" fill="white">
                            <use xlink:href="#path-1"></use>
                        </mask>
                        <g id="Clip-5"></g>
                        <path d="M4.99870429,24.4764731 C4.99870429,26.7025376 5.9769865,27.548129 7.53313374,27.548129 C9.08893742,27.548129 10.0672196,26.7025376 10.0672196,24.4764731 L10.0672196,7.64791398 C10.0672196,5.42167742 9.08893742,4.57556989 7.53313374,4.57556989 C5.9769865,4.57556989 4.99870429,5.42167742 4.99870429,7.64791398 L4.99870429,24.4764731 Z M0.109354601,7.95965591 C0.109354601,2.97316129 2.73207853,0.123268817 7.53313374,0.123268817 C12.334189,0.123268817 14.9565693,2.97316129 14.9565693,7.95965591 L14.9565693,24.1647312 C14.9565693,29.1512258 12.334189,31.999914 7.53313374,31.999914 C2.73207853,31.999914 0.109354601,29.1512258 0.109354601,24.1647312 L0.109354601,7.95965591 Z" id="Fill-4" fill="#FEFEFE" mask="url(#mask-2)"></path>
                    </g>
                    <polygon id="Fill-7" fill="#FEFEFE" points="40.6952172 31.6438194 35.8058675 31.6438194 35.8058675 0.480464516 40.6952172 0.480464516 40.6952172 13.8365075 46.2515853 13.8365075 46.2515853 0.480464516 51.2294012 0.480464516 51.2294012 31.6438194 46.2515853 31.6438194 46.2515853 18.2879484 40.6952172 18.2879484"></polygon>
                    <path d="M59.4513521,21.7604129 L64.1642847,21.7604129 L61.8079902,6.00058495 L59.4513521,21.7604129 Z M70.6096098,31.6437677 L65.6749104,31.6437677 L64.8301006,25.9899183 L58.8296834,25.9899183 L57.9852172,31.6437677 L53.4954258,31.6437677 L58.4744442,0.480584946 L65.6317939,0.480584946 L70.6096098,31.6437677 Z" id="Fill-9" fill="#FEFEFE"></path>
                    <g id="Group-13" transform="translate(72.319018, 0.000000)">
                        <mask id="mask-4" fill="white">
                            <use xlink:href="#path-3"></use>
                        </mask>
                        <g id="Clip-12"></g>
                        <path d="M14.6924761,20.0241892 L14.6924761,24.1645763 C14.6924761,29.151243 12.2027092,31.9999312 7.40251288,31.9999312 C2.60145767,31.9999312 0.111347239,29.151243 0.111347239,24.1645763 L0.111347239,7.95967312 C0.111347239,2.97317849 2.60145767,0.123286022 7.40251288,0.123286022 C12.2027092,0.123286022 14.6924761,2.97317849 14.6924761,7.95967312 L14.6924761,10.987286 L10.0692123,10.987286 L10.0692123,7.64775914 C10.0692123,5.42169462 9.09093006,4.5755871 7.53512638,4.5755871 C5.9793227,4.5755871 5.00207117,5.42169462 5.00207117,7.64775914 L5.00207117,24.4764903 C5.00207117,26.7025548 5.9793227,27.5041032 7.53512638,27.5041032 C9.09093006,27.5041032 10.0692123,26.7025548 10.0692123,24.4764903 L10.0692123,20.0241892 L14.6924761,20.0241892 Z" id="Fill-11" fill="#FEFEFE" mask="url(#mask-4)"></path>
                    </g>
                    <polygon id="Fill-14" fill="#FEFEFE" points="96.3895706 19.2234495 94.8780859 22.0723097 94.8780859 31.6437505 89.9883926 31.6437505 89.9883926 0.480567742 94.8780859 0.480567742 94.8780859 14.0587183 101.279264 0.480567742 106.168613 0.480567742 99.3678773 14.3701161 106.168613 31.6437505 101.14562 31.6437505"></polygon>
                    <polygon id="Fill-16" fill="#FEFEFE" points="113.279961 13.6135742 119.991372 13.6135742 119.991372 18.0655312 113.279961 18.0655312 113.279961 27.1922409 121.724967 27.1922409 121.724967 31.6438538 108.389237 31.6438538 108.389237 0.480498925 121.724967 0.480498925 121.724967 4.93228387 113.279961 4.93228387"></polygon>
                    <path d="M129.636547,4.93228387 L129.636547,14.5045849 L131.546903,14.5045849 C133.369995,14.5045849 134.480891,13.7026925 134.480891,11.2092731 L134.480891,8.13778925 C134.480891,5.91155269 133.72678,4.93228387 131.991811,4.93228387 L129.636547,4.93228387 Z M134.970118,31.6438538 C134.702658,30.8426495 134.52624,30.3533591 134.52624,27.8152086 L134.52624,22.9183484 C134.52624,20.0242409 133.547958,18.9563699 131.324793,18.9563699 L129.636547,18.9563699 L129.636547,31.6438538 L124.747198,31.6438538 L124.747198,0.480498925 L132.125627,0.480498925 C137.192768,0.480498925 139.37024,2.83938065 139.37024,7.64781075 L139.37024,10.0964989 C139.37024,13.3016602 138.349013,15.3942194 136.170167,16.4183914 C138.615958,17.4418753 139.41559,19.8017892 139.41559,23.0520258 L139.41559,27.8601118 C139.41559,29.3734022 139.459909,30.4872086 139.948964,31.6438538 L134.970118,31.6438538 Z" id="Fill-18" fill="#FEFEFE"></path>
                </g>
            </g>
        </g>
    </g>
</svg>
