<svg width="151px" height="184px" viewBox="0 0 151 184" version="1.1" xmlns="http://www.w3.org/2000/svg" xmlns:xlink="http://www.w3.org/1999/xlink">
    <defs>
        <polygon id="path-1" points="0 0.0901451104 150.943996 0.0901451104 150.943996 151.55685 0 151.55685"></polygon>
        <polygon id="path-3" points="0 184 151 184 151 0 0 0"></polygon>
    </defs>
    <g id="Symbols" stroke="none" stroke-width="1" fill="none" fill-rule="evenodd">
        <g id="Logo">
            <g id="Group">
                <g id="Group-3">
                    <mask id="mask-2" fill="white">
                        <use xlink:href="#path-1"></use>
                    </mask>
                    <g id="Clip-2"></g>
                    <path d="M150.943996,75.8239293 C150.943996,117.651261 117.153923,151.55685 75.4731449,151.55685 C33.7899772,151.55685 -9.55696202e-05,117.651261 -9.55696202e-05,75.8239293 C-9.55696202e-05,33.9975571 33.7899772,0.0900492114 75.4731449,0.0900492114 C117.153923,0.0900492114 150.943996,33.9975571 150.943996,75.8239293" id="Fill-1" fill="#DCDCDC" mask="url(#mask-2)"></path>
                </g>
                <path d="M115.894279,40.6845167 C100.075836,40.5537798 86.5295656,37.126095 75.5124349,31.0133114 L75.5124349,31 C75.5067139,31.002377 75.5028999,31.0038033 75.5000395,31.0057049 C75.4967022,31.0038033 75.4928883,31.002377 75.4871673,31 L75.4871673,31.0133114 C64.4719435,37.126095 50.9275805,40.5537798 35.1062771,40.6845167 C34.9451369,45.5431766 34.9656369,50.3904267 35.1787426,55.1915623 C35.3689643,59.4992255 35.7727685,63.9138552 36.2700149,67.957192 C37.352229,76.7446156 39.1285858,85.0119439 42.5973921,91.8925099 C49.4096203,105.40643 60.5850308,114.505246 75.4871673,119.98859 L75.4871673,120 C75.4928883,119.996672 75.4967022,119.996672 75.5000395,119.996672 C75.5000395,119.996672 75.5067139,119.996672 75.5124349,120 L75.5124349,119.98859 C90.4136179,114.505246 101.588075,105.40643 108.403164,91.8925099 C111.871016,85.0119439 113.644513,76.7446156 114.72768,67.957192 C115.22588,63.9138552 115.629684,59.4992255 115.819906,55.1915623 C116.034919,50.3904267 116.054465,45.5431766 115.894279,40.6845167" id="Fill-4" fill="#FEFEFE"></path>
                <path d="M76,31.0133114 C76,31.0133114 76.0096496,31.0038033 76.0130269,31.0052295 C76.0159218,31.0038033 76.0197816,31.002377 76.0255714,31 L76.0255714,31.0133114 C87.1751833,37.1256196 100.884347,40.5537798 116.893007,40.6845167 C117.05512,45.5427012 117.035339,50.3904267 116.817741,55.1915623 C116.625231,59.4992255 116.216571,63.9138552 115.712381,67.9567166 C114.616188,76.7441402 112.820883,85.0114685 109.311812,91.8925099 C102.414771,105.405955 91.1059413,114.505246 76.0255714,119.98859 L76.0255714,120 C76.0197816,119.996672 76.0159218,119.996672 76.0159218,119.996672 C76.0096496,119.996672 76,119.98859 76,119.98859 L76.0096496,119.996672 L76,31.0133114 Z" id="Fill-6" fill="#CECECE"></path>
                <path d="M76.0513791,79.0628446 C76.0513791,79.0743275 76.0394304,79.0776767 76.0231803,79.0776767 L76.0231803,79.0628446 C76.0231803,79.0661938 76.0093199,79.0704999 75.9992831,79.0743275 C75.9925919,79.0704999 75.9806432,79.0661938 75.9806432,79.0628446 L75.9806432,79.0776767 C75.9620034,79.0776767 75.9467092,79.0743275 75.9486209,79.0628446 C63.9402569,70.4267433 51.947665,61.5767729 40,53 C40.650005,68.9660221 42.4814896,83.3043425 48.750692,93.7356046 C54.920004,103.998451 64.0822065,111.402532 75.9806432,115.98134 L75.9806432,116 C75.9859006,115.996172 75.9925919,115.992345 75.9992831,115.988517 C76.0093199,115.992345 76.0150553,115.996172 76.0231803,116 L76.0231803,115.98134 C87.9187494,111.402532 97.0828637,103.998451 103.248352,93.7356046 C109.519466,83.3043425 111.348561,68.9660221 112,53 C100.050423,61.5767729 88.0587872,70.4267433 76.0513791,79.0628446" id="Fill-8" fill="#5B5D5D"></path>
                <path d="M75.0316658,115.98134 L75.0316658,116 C75.037393,115.996651 75.0435975,115.992345 75.0502792,115.988517 C75.0607791,115.992345 75.0660291,115.996651 75.0746199,116 L75.0746199,115.98134 C86.9533385,111.40301 96.1039943,103.998451 102.261226,93.7360831 C108.523457,83.304821 110.349484,68.9660221 111,53 C99.0673501,61.5772514 87.0927007,70.4272218 75.1023014,79.0628446 C75.1023014,79.0743275 75.0903697,79.0776767 75.0746199,79.0776767 L75.0746199,79.0628446 C75.0746199,79.0661938 75.0607791,79.0704999 75.0502792,79.0743275 C75.0435975,79.0704999 75.0316658,79.0661938 75.0316658,79.0628446 L75.0316658,79.0776767 C75.0130524,79.0776767 74.9982571,79.0743275 75.0001661,79.0628446" id="Fill-10" fill="#404040"></path>
                <path d="M121.898866,88.58296 C121.867641,88.9103401 122.157653,89.2608635 122.296272,89.4652952 C122.686109,90.0395363 123.64698,91.3153063 124.427126,91.1962151 C124.848188,91.1301605 125.501542,90.0433935 125.473156,89.5752255 C125.45092,89.220845 124.928615,88.6041746 124.67929,88.2531691 C124.353795,87.7999478 123.963959,87.2609036 123.41516,87.3708339 C122.859737,87.4807642 121.936714,88.2092934 121.898866,88.58296 Z M131.17357,68.8331157 C131.169785,67.070856 132.352542,66.5245796 133.557534,66 C133.946425,67.2950559 134.163579,68.7651325 135.109784,69.4960725 C135.6917,72.4111537 136.08201,75.5215059 136.549435,78.8738976 C136.928391,81.5474215 137.353237,84.3202684 137.77761,86.9663097 C137.843844,87.3708339 138.020312,87.8467164 137.998076,88.1065954 C137.963066,88.4055287 137.468674,89.0091809 137.236854,89.3944191 C133.305844,95.8571629 129.413155,102.299656 125.543175,108.666452 L125.543175,114 L114.065705,114 C114.043469,113.531832 114.115854,112.969645 114.030696,112.563192 C112.529068,110.919541 111.243175,109.057476 111,106.128413 L111,105.172791 C111.134834,102.885469 112.151059,101.133817 113.271366,99.6189003 C114.386469,98.1160375 115.460412,96.5837636 116.522054,95.0230428 C118.06768,92.7472929 119.622769,90.2844687 121.465504,88.2165257 C121.962735,87.6577134 122.859737,86.5482854 123.887316,86.7064307 C124.443685,86.7965928 124.770599,87.4074773 125.11076,87.8467164 C125.501542,88.3558672 125.840757,88.7965526 125.941528,89.3944191 C126.083932,90.2593969 125.255056,91.4136649 124.894552,92.0033349 C124.431857,92.769954 123.928949,93.4724471 123.48991,94.2115837 C122.546543,95.7780903 121.624466,97.2105591 120.959284,98.8826566 C121.581887,98.4858469 121.986863,97.8214436 122.438676,97.2259879 C123.839533,95.4010487 125.365762,93.4724471 126.737287,91.7125982 C128.37091,90.2285393 130.057994,88.8466963 131.788604,87.3708339 C131.996769,87.1934026 132.432969,86.864576 132.475075,86.7064307 C132.525224,86.5208028 132.430131,86.0685457 132.401271,85.7132009 C132.016166,80.6530325 131.711015,75.5297025 131.282384,70.6363582 C131.274814,70.2274946 131.17357,69.9155433 131.17357,69.4960725 L131.17357,68.8331157 Z" id="Fill-12" fill="#4C4B4B"></path>
                <path d="M28.016946,87.0072924 C28.4448658,86.9470206 28.8331144,87.2734929 29.1896261,87.5025257 C29.4488112,87.671789 29.9476101,87.8922833 29.9952156,88.2699866 C30.0470526,88.6712963 29.6656803,89.1067601 29.4313558,89.4181644 C29.1938577,89.7371026 28.8537434,90.0987334 28.6241795,90.3031553 C28.2845942,90.5944689 27.6678396,91.0660958 27.2113565,90.9922628 C26.7337155,90.9154163 25.9921289,89.917918 26.0000631,89.381499 C26.0095842,88.9063563 26.5427649,88.4889741 26.8495554,88.0771169 C27.1780328,87.6396441 27.4758311,87.0811254 28.016946,87.0072924" id="Fill-14" fill="#CECECE"></path>
                <path d="M123.697967,87.0150201 C124.311576,86.9007363 124.74745,87.4611277 125.111383,87.9322975 C125.390152,88.2972035 125.974138,88.9377939 125.998999,89.3067099 C126.030738,89.7934183 125.300226,90.9232234 124.82944,90.9918939 C123.957164,91.1157012 122.88282,89.7894083 122.446947,89.1924261 C122.291957,88.9793972 121.967697,88.6154937 122.002609,88.2751487 C122.044927,87.886183 123.076953,87.1293038 123.697967,87.0150201" id="Fill-16" fill="#CECECE"></path>
                <path d="M129,114.009888 L129,120 L120,120 L120,114.009888 C121.858627,113.98764 127.87103,114.009888 129,114.009888" id="Fill-18" fill="#DFDFDF"></path>
                <path d="M119,114.009888 L119,120 L110,120 L110,114.009888 C111.860097,113.98764 117.868872,114.009888 119,114.009888" id="Fill-20" fill="#FEFEFE"></path>
                <mask id="mask-4" fill="white">
                    <use xlink:href="#path-3"></use>
                </mask>
                <g id="Clip-23"></g>
                <polygon id="Fill-22" fill="#E1E2E0" mask="url(#mask-4)" points="31 120 40 120 40 114 31 114"></polygon>
                <polygon id="Fill-24" fill="#FEFEFE" mask="url(#mask-4)" points="22 120 31 120 31 114 22 114"></polygon>
                <path d="M79.2627314,50.6922229 C79.2737813,50.2970651 79.8709564,49.5469351 80.1409583,49.0862367 C81.110467,47.4328889 82.0352956,45.9656385 83,44.3429083 C81.3569278,42.8263827 79.6153674,41.4093641 77.8704439,40 L75.4860675,40 L75.4860675,40.0081328 L73.1314778,40.0081328 C71.3860739,41.4208457 69.6440331,42.8335587 68,44.3524762 C68.9651848,45.9752064 69.8885722,47.4424569 70.8619243,49.0943694 C71.1290436,49.5550679 71.7257383,50.3042411 71.7391903,50.7041829 C71.7492794,50.9888304 71.6003459,51.3638954 71.5196336,51.7231732 C70.9762667,54.1917133 70.4554801,56.6157622 69.9433412,59.0235456 C70.8335789,59.7248788 71.7886747,60.388897 72.7269554,61.0653535 C73.6474601,61.7284148 74.5429825,62.4426649 75.4860675,62.9851696 L75.4860675,62.992824 C75.4879892,62.9909104 75.4923131,62.9885184 75.4923131,62.9885184 C75.5009609,62.992824 75.506726,62.9966512 75.5120108,63 L75.5120108,62.9732096 C76.4589392,62.4340537 77.3510986,61.7188468 78.2754468,61.0562639 C79.2122862,60.3788506 80.1693037,59.7114837 81.0595413,59.0139776 C80.5454808,56.6085862 80.0237333,54.1783181 79.483249,51.7155189 C79.3996541,51.3524138 79.2516815,50.981176 79.2627314,50.6922229" id="Fill-25" fill="#404040" mask="url(#mask-4)"></path>
                <path d="M76,62.9851696 L76,62.992824 C76.0017902,62.9909104 76.0062656,62.9885184 76.0062656,62.9885184 C76.0138738,62.992824 76.0192443,62.9966512 76.0246148,63 L76.0246148,62.9732096 C76.906272,62.4340537 77.7378045,61.7188468 78.5988748,61.0562639 C79.4711336,60.3788506 80.3626367,59.7110053 81.192379,59.0134992 C80.7130618,56.6081078 80.2270315,54.1778397 79.7235471,51.7150405 C79.6456748,51.3524138 79.507832,50.981176 79.5181254,50.6922229 C79.5288664,50.2970651 80.0847133,49.5469351 80.3362317,49.0857583 C81.2393709,47.4324105 82.1013362,45.9656385 83,44.3424299 C81.4694073,42.8263827 79.8470686,41.4093641 78.2211495,40 L76,40 L76,40.0081328" id="Fill-26" fill="#323333" mask="url(#mask-4)"></path>
                <path d="M112,44.9499894 C111.906366,44.9313392 109.311014,44.9064722 107.013372,44.6922342 C103.761139,44.3923965 102.420968,43.9658332 102.185681,44.0021772 C101.891814,44.0442596 78.9307546,60.6190177 76.0036013,62.7346186 C73.0692454,60.6190177 50.1086665,44.0442596 49.8162393,44.0021772 C49.5790323,43.9658332 48.2436627,44.3923965 44.9856681,44.6922342 C42.6885058,44.9064722 40.1003568,44.9313392 40,44.9499894 C40.0052819,44.9805948 40.0364934,44.9863333 40.0364934,45.0250683 C51.9650272,53.6165889 75.7140552,70.7929351 75.9963987,70.9904358 L75.9963987,71 L76.0036013,70.9933051 L76.0084031,71 L76.0084031,70.9904358 C76.291707,70.7929351 100.036894,53.6165889 111.964467,45.0250683 C111.964467,44.9863333 111.995198,44.9805948 112,44.9499894" id="Fill-27" fill="#5B5D5D" mask="url(#mask-4)"></path>
                <path d="M76,70.9904358 L76,71 L76.007682,70.9937833 L76.0120032,71 L76.0120032,70.9904358 C76.2952787,70.7929347 100.03809,53.6165534 111.964471,45.0254935 C111.964471,44.9862802 111.995679,44.9805417 112,44.9499362 C111.906375,44.9317641 109.311763,44.906419 107.01435,44.6921804 C103.761963,44.3928204 102.421926,43.9662562 102.186663,44.002122 C101.893305,44.0442046 78.9340624,60.6189965 76.007682,62.7346018" id="Fill-28" fill="#404040" mask="url(#mask-4)"></path>
                <path d="M134,66 C134.850351,66.0484071 135.113075,66.8005792 135.346541,67.2941663 C135.636087,67.9019446 135.873819,68.4869673 136,69 C134.780859,68.3727762 134.501067,67.111295 134,66" id="Fill-29" fill="#CECECE" mask="url(#mask-4)"></path>
                <path d="M127,92 C128.259822,90.2234576 129.815232,88.7298744 130.721238,86.6122435 C130.78983,86.5718894 130.78983,86.2822044 130.721238,86.2432915 C130.177437,81.9926566 129.109573,78.2349187 128.691606,73.8550546 L128.691606,73.1618283 C128.808065,72.5646833 129.584782,72.1500926 130.085158,71.8796239 C130.698045,71.5452611 131.309945,71.3372452 131.740742,71 C132.188317,75.8756434 132.50611,80.9804406 132.908286,86.0223046 C132.937894,86.376364 133.037081,86.8265047 132.985267,87.0119415 C132.940855,87.1690344 132.485878,87.4966715 132.269245,87.6739414 C130.464141,89.144465 128.703943,90.5213095 127,92" id="Fill-30" fill="#323333" mask="url(#mask-4)"></path>
                <path d="M16,69 C16.1610247,68.4356887 16.3799939,67.8303892 16.6501982,67.2640077 C16.8996645,66.7464808 17.1308326,66.058377 18,66 C17.5108265,67.1219983 17.2021958,68.3628209 16,69" id="Fill-31" fill="#CECECE" mask="url(#mask-4)"></path>
                <path d="M19.2542513,71 C19.6235587,71.3416203 20.3412692,71.5684062 20.9236002,71.8802368 C21.4481958,72.1541096 22.1888013,72.5807746 22.3301535,73.0146467 C22.4640398,73.4312217 22.3211945,74.2259333 22.2520116,74.8121172 C21.8418913,78.3301814 21.0913314,81.4374365 20.5045209,84.7786846 C20.4054749,85.3581418 20.2009125,85.9909321 20.2417254,86.5012004 C20.2770635,86.9754327 20.7036085,87.5976525 20.9992534,88.0411343 C21.994691,89.5354227 23.003567,90.5876708 24,91.964242 C23.9915388,92.0934907 23.84073,91.8378761 23.732725,91.7437023 C21.94691,90.167252 19.8042306,88.6249158 18,87.0542312 C18.4384903,81.7194774 18.7883866,76.3040032 19.2542513,71" id="Fill-32" fill="#323333" mask="url(#mask-4)"></path>
                <path d="M26.2660926,88.3623268 C25.9920193,88.7572199 25.5156988,89.1583811 25.5076657,89.6145091 C25.500105,90.1294613 26.1626063,91.0870408 26.5893101,91.1603299 C26.9971123,91.2316903 27.5480941,90.7784553 27.8514649,90.4992818 C28.0565473,90.3025585 28.3603906,89.9558819 28.5725612,89.649225 C28.7818965,89.3502828 29.1225979,88.9327279 29.076289,88.546996 C29.0337604,88.184408 28.588155,87.9727376 28.3566103,87.8107302 C28.0381182,87.590863 27.6912738,87.2774558 27.3089888,87.3353156 C26.8255802,87.4061938 26.5595401,87.941879 26.2660926,88.3623268 M19.7048724,70.5998533 C19.2630474,75.9224719 18.9308516,81.3569527 18.5145437,86.7104298 C20.2275018,88.286627 22.2613147,89.8343763 23.9567888,91.4163595 C24.05933,91.5108638 24.2025097,91.7673755 24.2105429,91.6376732 C25.9031818,93.7268938 27.5386433,96.0147663 29.2204137,98.072164 C29.4576289,98.3638738 29.6716896,98.7568382 30.0492492,98.8822011 C28.9987924,96.5408082 27.5131261,94.2109873 26.1578809,92.008458 C25.7453534,91.3372844 25.0129161,90.4491366 25.0384333,89.5050577 C25.0559173,88.8705287 25.4344219,88.4105433 25.8323007,87.8859479 C26.1654416,87.4452492 26.5316602,86.8203634 27.0580699,86.7104298 C27.853355,86.5368505 28.3471595,87.1419674 28.9335819,87.5566293 C29.1448073,87.8034977 29.3744618,88.0363834 29.6182926,88.2523932 C31.7281844,90.751454 33.4075921,93.4901508 35.2396304,96.1627909 C36.153523,97.4945304 37.1217578,98.7973401 38.0536071,100.134866 C38.9967972,101.487338 39.8256327,103.011944 39.9631419,105.027393 C39.9853513,105.148899 39.9173055,105.368766 40,105.432412 L40,105.873592 C39.9173055,105.923255 39.9853513,106.127693 39.9631419,106.243413 C39.6871784,109.095418 38.4127376,110.933913 36.9341594,112.56797 L36.9341594,114 L31.2740733,114 L25.4344219,114 L25.4344219,111.355808 C25.4344219,110.485018 25.5979208,109.458006 25.4344219,108.667738 C25.3673212,108.329258 24.9240785,107.785859 24.6778851,107.38084 C20.7515489,100.870649 16.9012916,94.5808078 13,88.1424596 C14.1000735,82.0705568 14.7597396,75.5444546 15.8829676,69.493767 C16.8143442,68.7517152 17.0534495,67.3066669 17.4328993,66 C18.6444923,66.4821649 19.7804788,67.0385832 19.812139,68.7232675 L19.812139,69.6051471 C19.7989079,69.9580918 19.7318072,70.2589627 19.7048724,70.5998533" id="Fill-33" fill="#4C4B4B" mask="url(#mask-4)"></path>
                <path d="M109,143 L109,118 L130,118 L130,127.433295 C123.536351,134.392855 115.688311,139.680782 109,143" id="Fill-34" fill="#404040" mask="url(#mask-4)"></path>
                <path d="M120,118 L131,118 L131,127.593271 C127.598506,131.174983 123.824098,134.325585 120.025091,137" id="Fill-35" fill="#323333" mask="url(#mask-4)"></path>
                <path d="M42,143 C34.9527027,139.895308 25.1597973,132.339485 21,127.533682 L21,118 L42,118 L42,143 Z" id="Fill-36" fill="#404040" mask="url(#mask-4)"></path>
                <path d="M31,118 L42,118 L42,143 C38.6203609,141.566193 34.7751392,139.313945 31.0372466,136.681049" id="Fill-37" fill="#323333" mask="url(#mask-4)"></path>
                <polygon id="Fill-38" fill="#FEFEFE" mask="url(#mask-4)" points="7 158 20 158 20 161.857211 15.6035553 161.857211 15.6035553 185 11.3969193 185 11.3969193 161.857211 7 161.857211"></polygon>
                <path d="M26.2313482,161.857211 L26.2313482,181.142789 L28.6159862,181.142789 C29.9610442,181.142789 30.7696064,180.448701 30.7696064,178.520096 L30.7696064,164.479904 C30.7696064,162.551299 29.9610442,161.857211 28.6159862,161.857211 L26.2313482,161.857211 Z M22,158 L28.6923557,158 C32.9237039,158 35,160.352238 35,164.672813 L35,178.327187 C35,182.647283 32.9237039,185 28.6923557,185 L22,185 L22,158 Z" id="Fill-39" fill="#FEFEFE" mask="url(#mask-4)"></path>
                <path d="M41.2810062,178.391154 C41.2810062,180.346436 42.1374006,181.089434 43.5,181.089434 C44.8621164,181.089434 45.7189938,180.346436 45.7189938,178.391154 L45.7189938,163.609332 C45.7189938,161.654049 44.8621164,160.910566 43.5,160.910566 C42.1374006,160.910566 41.2810062,161.654049 41.2810062,163.609332 L41.2810062,178.391154 Z M37,163.883042 C37,159.503189 39.296277,157 43.5,157 C47.703723,157 50,159.503189 50,163.883042 L50,178.117443 C50,182.497296 47.703723,185 43.5,185 C39.296277,185 37,182.497296 37,178.117443 L37,163.883042 Z" id="Fill-40" fill="#FEFEFE" mask="url(#mask-4)"></path>
                <polygon id="Fill-41" fill="#FEFEFE" mask="url(#mask-4)" points="57.1209986 185 53 185 53 158 57.1209986 158 57.1209986 169.571634 61.8041418 169.571634 61.8041418 158 66 158 66 185 61.8041418 185 61.8041418 173.428366 57.1209986 173.428366"></polygon>
                <path d="M73.2203133,176.437028 L77.3508252,176.437028 L75.2853275,162.782895 L73.2203133,176.437028 Z M83,185 L78.674639,185 L77.9344056,180.101266 L72.6754126,180.101266 L71.9351792,185 L68,185 L72.3640407,158 L78.6369263,158 L83,185 Z" id="Fill-42" fill="#DCDCDC" mask="url(#mask-4)"></path>
                <path d="M98,174.480588 L98,178.117443 C98,182.497296 95.779888,185 91.5004918,185 C87.220112,185 85,182.497296 85,178.117443 L85,163.883042 C85,159.503189 87.220112,157 91.5004918,157 C95.779888,157 98,159.503189 98,163.883042 L98,166.542499 L93.8779888,166.542499 L93.8779888,163.609332 C93.8779888,161.654049 93.0059776,160.911051 91.6185306,160.911051 C90.2315754,160.911051 89.3605478,161.654049 89.3605478,163.609332 L89.3605478,178.391154 C89.3605478,180.346436 90.2315754,181.05061 91.6185306,181.05061 C93.0059776,181.05061 93.8779888,180.346436 93.8779888,178.391154 L93.8779888,174.480588 L98,174.480588 Z" id="Fill-43" fill="#DCDCDC" mask="url(#mask-4)"></path>
                <polygon id="Fill-44" fill="#DCDCDC" mask="url(#mask-4)" points="105.538713 174.238773 104.230882 176.707331 104.230882 185 100 185 100 158 104.230882 158 104.230882 169.764542 109.769118 158 114 158 108.115236 170.03404 114 185 109.653609 185"></polygon>
                <polygon id="Fill-45" fill="#DCDCDC" mask="url(#mask-4)" points="120.400596 169.378725 126.439811 169.378725 126.439811 173.235937 120.400596 173.235937 120.400596 181.142789 128 181.142789 128 185 116 185 116 158 128 158 128 161.857211 120.400596 161.857211"></polygon>
                <path d="M134.181267,161.857211 L134.181267,170.150359 L135.814995,170.150359 C137.374183,170.150359 138.32385,169.455793 138.32385,167.295506 L138.32385,164.634518 C138.32385,162.705434 137.678945,161.857211 136.195711,161.857211 L134.181267,161.857211 Z M138.742307,185 C138.513972,184.305434 138.362534,183.881801 138.362534,181.682741 L138.362534,177.440191 C138.362534,174.932861 137.526092,174.00757 135.625345,174.00757 L134.181267,174.00757 L134.181267,185 L130,185 L130,158 L136.309878,158 C140.643054,158 142.505589,160.043968 142.505589,164.209928 L142.505589,166.331442 C142.505589,169.108271 141.631877,170.921514 139.768871,171.80851 C141.860212,172.695506 142.544273,174.739952 142.544273,177.556032 L142.544273,181.721514 C142.544273,183.032621 142.582015,183.997163 143,185 L138.742307,185 Z" id="Fill-46" fill="#DCDCDC" mask="url(#mask-4)"></path>
            </g>
        </g>
    </g>
</svg>
